# xmcd
# 
# Track frame offsets:
#     150
#     25747
#     42987
#     64033
#     82426
#     92829
#     107755
#     122766
#     140935
#     159500
#     180382
#     198021
#     217324
#     234523
# 
# Disc length: 3224
# 
# Revision: 3
# Processed by: cddbd v1.5.2PL0 Copyright (c) Steve Scherf et al.
# Submitted via: fre:ac v1.0.31
# 
DISCID=ca0c960e
DTITLE=Lee Ann Womack - The Lonely, The Lonesome and the Gone
DYEAR=2017
DGENRE=Country
TTITLE0=All the Trouble
TTITLE1=The Gone
TTITLE2=He Called Me Baby
TTITLE3=Hollywood
TTITLE4=End of the End of the World
TTITLE5=Bottom of the Barrel
TTITLE6=Rainy Day Song
TTITLE7=Mama Lost Her Smile
TTITLE8=Wicked
TTITLE9=Long Black Veil
TTITLE10=Someone Else's Heartache
TTITLE11=Sunday
TTITLE12=Talking Behind Your Back
TTITLE13=Take the Devil Out of Me
EXTD=
EXTT0=
EXTT1=
EXTT2=
EXTT3=
EXTT4=
EXTT5=
EXTT6=
EXTT7=
EXTT8=
EXTT9=
EXTT10=
EXTT11=
EXTT12=
EXTT13=
PLAYORDER=
